#!OML:ASF F:\VICON\USERDATA\Patient Classification 1\PLAYGROUND\JustinFriday\JustinFriday.ASF
:FULLY-SPECIFIED
:DEGREES
2821
root 15.3757 24.5653 48.32 -721.384 -173.077 5.60315
lowerback 28.8812 -1.34007 -1.55005
upperback 6.96825 -4.12546 -2.55745
thorax -8.18602 -2.63405 -0.423898
lowerneck -8.16276 -9.35164 -7.90346
upperneck -25.0041 -4.30178 23.4292
head -5.00689 -0.80456 9.0335
rclavicle 1.11319e-014 -2.54444e-014
rhumerus 91.6608 -20.7795 -68.5636
rradius 63.374
rwrist 12.6812
rhand -41.3269 -21.8441
rfingers 7.12502
rthumb -14.2467 -411.335
lclavicle 1.11319e-014 -2.54444e-014
lhumerus 14.0924 -7.7138 67.633
lradius 46.5742
lwrist -31.4031
lhand -28.8827 -35.264
lfingers 7.12502
lthumb -2.23846 -5.29604
rfemur -44.6399 2.6232 33.8567
rtibia 76.0774
rfoot -35.5624 -14.5806
rtoes 14.0664
lfemur 1.11856 2.94136 -7.12139
ltibia -1.82633e-015
lfoot 21.5602 0.0680547
ltoes 3.50784
2822
root 15.393 24.658 48.2649 -721.521 -172.99 4.88691
lowerback 29.0646 -1.34192 -1.99257
upperback 6.89908 -4.31219 -2.8911
thorax -8.35568 -2.71801 -0.465134
lowerneck -8.3 -9.24339 -7.79282
upperneck -24.7057 -4.17199 23.5671
head -4.90985 -0.746358 9.04671
rclavicle 7.95139e-016 -4.92986e-014
rhumerus 92.2783 -20.0417 -69.2528
rradius 63.1407
rwrist 13.0988
rhand -41.1638 -22.2073
rfingers 7.12502
rthumb -14.0895 -411.71
lclavicle 7.95139e-016 -4.92986e-014
lhumerus 13.7854 -8.15087 67.2336
lradius 45.7352
lwrist -30.92
lhand -28.9258 -35.1263
lfingers 7.12502
lthumb -2.28005 -5.1587
rfemur -43.5348 2.10426 33.169
rtibia 75.0708
rfoot -35.447 -14.3505
rtoes 13.546
lfemur 1.46947 2.88663 -7.83415
ltibia -5.57839e-014
lfoot 21.317 -0.0946462
ltoes -1.90749
2823
root 15.4183 24.7355 48.2375 -721.795 -172.872 3.33838
lowerback 30.0405 -1.11352 -3.37418
upperback 6.73126 -4.60248 -3.4062
thorax -8.97609 -2.83993 -0.0929538
lowerneck -8.23792 -9.13353 -7.52292
upperneck -24.4581 -4.10524 23.5321
head -4.87051 -0.750859 8.97585
rclavicle 2.14687e-014 1.43125e-014
rhumerus 92.8362 -19.2098 -70.1227
rradius 62.9481
rwrist 13.4224
rhand -40.8203 -22.1663
rfingers 7.12502
rthumb -13.7585 -411.691
lclavicle 2.14687e-014 1.43125e-014
lhumerus 13.4653 -8.64379 66.8932
lradius 44.9051
lwrist -30.1557
lhand -28.8373 -34.5729
lfingers 7.12502
lthumb -2.1946 -4.60447
rfemur -42.3872 1.79634 31.5483
rtibia 74.231
rfoot -35.5447 -14.0252
rtoes 13.2857
lfemur 2.23074 2.7719 -9.44611
ltibia -5.70512e-014
lfoot 20.556 -0.186683
ltoes -6.7686
2824
root 15.4374 24.803 48.1464 -721.416 -172.885 5.6878
lowerback 28.1594 -1.76085 -0.838378
upperback 6.79096 -4.41861 -3.02323
thorax -8.12016 -2.75752 -1.27745
lowerneck -8.25235 -9.04256 -7.34358
upperneck -24.323 -3.98178 23.5921
head -4.85228 -0.703196 8.96069
rclavicle -1.90833e-014 1.11319e-014
rhumerus 93.425 -18.4153 -71.0227
rradius 62.7703
rwrist 13.8322
rhand -40.6191 -22.0029
rfingers 7.12502
rthumb -13.5646 -411.541
lclavicle -1.90833e-014 1.11319e-014
lhumerus 13.3749 -8.50034 66.8872
lradius 43.9055
lwrist -30.2336
lhand -28.2517 -34.4473
lfingers 7.12502
lthumb -1.62902 -4.47374
rfemur -42.0961 2.51562 34.2396
rtibia 73.0557
rfoot -35.4126 -14.555
rtoes 14.0887
lfemur 1.94841 2.93507 -6.60276
ltibia -3.38928e-014
lfoot 20.0308 1.44376
ltoes -5.35598
2825
root 15.4578 24.8784 48.0992 -721.426 -172.82 5.70695
lowerback 27.9837 -1.86908 -0.661531
upperback 6.74841 -4.50229 -3.16378
thorax -8.10765 -2.79449 -1.51328
lowerneck -8.3075 -8.96028 -7.14529
upperneck -24.1979 -3.83957 23.7129
head -4.83078 -0.64088 8.96345
rclavicle 8.11041e-014 8.42847e-014
rhumerus 93.9991 -17.6124 -71.9224
rradius 62.597
rwrist 14.248
rhand -40.1295 -21.9419
rfingers 7.12502
rthumb -13.0926 -411.511
lclavicle 8.11041e-014 8.42847e-014
lhumerus 13.2963 -8.13575 66.9169
lradius 42.9102
lwrist -30.8823
lhand -27.1097 -34.3322
lfingers 7.12502
lthumb -0.525994 -4.35306
rfemur -41.3185 2.56702 34.3504
rtibia 72.1047
rfoot -35.3584 -14.5336
rtoes 15.5832
lfemur 2.26612 2.92897 -6.44006
ltibia 6.75868e-015
lfoot 19.5057 2.69013
ltoes 4.09807
2826
root 15.4775 24.9582 48.0713 -721.721 -172.7 4.01461
lowerback 28.8927 -1.62819 -2.16184
upperback 6.65534 -4.79432 -3.72991
thorax -8.61732 -2.93175 -1.13413
lowerneck -8.17191 -8.86778 -6.94212
upperneck -24.1899 -3.65451 23.871
head -4.88375 -0.572423 8.99143
rclavicle -1.66979e-014 -1.59028e-015
rhumerus 94.5284 -16.7357 -72.9049
rradius 62.4417
rwrist 14.689
rhand -39.2112 -21.6143
rfingers 7.12502
rthumb -12.2073 -411.238
lclavicle -1.66979e-014 -1.59028e-015
lhumerus 13.1221 -8.3397 66.7245
lradius 42.0526
lwrist -30.7215
lhand -26.4557 -33.1895
lfingers 7.12502
lthumb 0.105602 -3.20978
rfemur -40.1737 2.21828 32.5492
rtibia 71.2202
rfoot -35.1547 -14.3533
rtoes 15.2717
lfemur -1.18894 3.00618 -8.34991
ltibia 7.91239
lfoot 15.7418 0.214662
ltoes 3.38569
2827
root 15.4966 25.0537 48.0214 -721.768 -172.628 3.80541
lowerback 28.7499 -1.70118 -2.15728
upperback 6.6469 -4.90334 -3.92645
thorax -8.57812 -2.98631 -1.32377
lowerneck -8.34915 -8.80954 -6.86125
upperneck -23.8726 -3.59588 24.0603
head -4.75841 -0.54052 9.02475
rclavicle -5.88403e-014 -4.13472e-014
rhumerus 95.0112 -15.9466 -73.7347
rradius 62.3439
rwrist 14.9797
rhand -38.3383 -21.2034
rfingers 7.12502
rthumb -11.3656 -410.875
lclavicle -5.88403e-014 -4.13472e-014
lhumerus 12.5684 -11.0848 65.0773
lradius 42.5232
lwrist -27.3178
lhand -26.6603 -30.4448
lfingers 7.12502
lthumb -0.0920229 -0.46511
rfemur -39.2533 2.17849 32.3609
rtibia 70.1131
rfoot -34.9543 -14.314
rtoes 14.9623
lfemur -2.52353 3.07799 -8.43418
ltibia 11.4902
lfoot 13.2978 -1.53001
ltoes -0.524516
2828
root 15.5141 25.1374 47.9504 -721.541 -172.612 5.26691
lowerback 27.6125 -2.09172 -0.569129
upperback 6.60313 -4.77455 -3.65209
thorax -8.1483 -2.91539 -2.02857
lowerneck -8.58071 -8.72406 -6.84624
upperneck -23.3891 -3.59023 24.1429
head -4.56672 -0.533767 9.02148
rclavicle -2.94201e-014 -3.18055e-014
rhumerus 95.3113 -15.1811 -74.3419
rradius 62.3292
rwrist 15.1053
rhand -37.2992 -21.1785
rfingers 7.12502
rthumb -10.3633 -410.903
lclavicle -2.94201e-014 -3.18055e-014
lhumerus 12.8416 -9.12868 66.5122
lradius 40.6766
lwrist -29.6761
lhand -26.5292 -30.5575
lfingers 7.12502
lthumb 0.0346727 -0.5778
rfemur -38.7373 2.52251 34.0228
rtibia 68.8743
rfoot -34.7829 -14.294
rtoes 16.5205
lfemur -4.06245 4.10838 -6.6705
ltibia 14.0029
lfoot 11.9001 -3.4311
ltoes -3.01946
2829
root 15.5323 25.2272 47.9069 -721.446 -172.569 5.95148
lowerback 27.2617 -2.30585 0.232402
upperback 6.43576 -4.74327 -3.55258
thorax -8.20654 -2.88543 -2.40213
lowerneck -8.53792 -8.5801 -6.82996
upperneck -23.2851 -3.37508 24.2189
head -4.57484 -0.430583 9.04873
rclavicle 2.46493e-014 4.29375e-014
rhumerus 95.4481 -14.3866 -74.944
rradius 62.385
rwrist 15.2123
rhand -35.8783 -21.4124
rfingers 7.12502
rthumb -8.99233 -411.201
lclavicle 2.46493e-014 4.29375e-014
lhumerus 12.8361 -9.39516 66.3831
lradius 39.5073
lwrist -30.145
lhand -26.2066 -29.7633
lfingers 7.12502
lthumb 0.346233 0.216135
rfemur -38.0174 2.73573 34.8092
rtibia 67.5913
rfoot -34.384 -14.3506
rtoes 17.1867
lfemur -5.50971 4.8279 -5.79924
ltibia 16.9368
lfoot 10.4535 -4.14649
ltoes 0.140027
2830
root 15.5448 25.3308 47.8881 -721.739 -172.448 4.24052
lowerback 28.2888 -2.0776 -1.24601
upperback 6.3004 -5.02574 -4.09598
thorax -8.82951 -3.01649 -2.00688
lowerneck -8.31558 -8.49326 -6.77043
upperneck -23.5005 -3.11582 24.3861
head -4.71731 -0.311698 9.12177
rclavicle 4.45278e-014 2.38542e-014
rhumerus 95.5628 -13.5875 -75.6223
rradius 62.4018
rwrist 15.4253
rhand -34.5322 -21.5092
rfingers 7.12502
rthumb -7.69323 -411.349
lclavicle 4.45278e-014 2.38542e-014
lhumerus 12.7598 -9.64293 66.3481
lradius 38.5344
lwrist -29.8245
lhand -25.9301 -28.6815
lfingers 7.12502
lthumb 0.613302 1.29739
rfemur -36.735 2.5066 32.928
rtibia 66.4917
rfoot -34.0694 -14.143
rtoes 16.5316
lfemur -6.03522 4.8842 -7.65591
ltibia 19.7792
lfoot 8.76492 -4.16562
ltoes 1.97986
2831
root 15.5611 25.4327 47.8526 -721.846 -172.362 3.663
lowerback 28.4786 -2.05413 -1.63306
upperback 6.22335 -5.16177 -4.35459
thorax -9.01316 -3.07801 -2.01418
lowerneck -8.10157 -8.42961 -6.52306
upperneck -23.5864 -3.0092 24.3329
head -4.81326 -0.291034 9.06899
rclavicle 2.94201e-014 3.33958e-014
rhumerus 95.643 -12.7528 -76.3404
rradius 62.485
rwrist 15.8416
rhand -32.9706 -21.4791
rfingers 7.12502
rthumb -6.18583 -411.369
lclavicle 2.94201e-014 3.33958e-014
lhumerus 12.6815 -10.1704 66.239
lradius 37.6225
lwrist -28.5314
lhand -25.5596 -27.4974
lfingers 7.12502
lthumb 0.97112 2.48012
rfemur -35.7119 2.51722 32.3113
rtibia 65.3034
rfoot -33.7306 -14.1549
rtoes 16.1363
lfemur -6.82878 5.44883 -8.22822
ltibia 22.3027
lfoot 7.26963 -4.82191
ltoes -2.64168
2832
root 15.5763 25.5276 47.811 -721.858 -172.297 3.66336
lowerback 28.3 -2.10718 -1.54691
upperback 6.13642 -5.17758 -4.38912
thorax -9.03376 -3.07703 -2.10355
lowerneck -7.88019 -8.32115 -6.41553
upperneck -23.613 -2.8783 24.2336
head -4.89195 -0.254126 9.02368
rclavicle 1.74931e-014 -6.99722e-014
rhumerus 95.6492 -11.9713 -76.8557
rradius 62.7118
rwrist 16.1708
rhand -31.2822 -21.5022
rfingers 7.12502
rthumb -4.55562 -411.433
lclavicle 1.74931e-014 -6.99722e-014
lhumerus 12.6069 -11.0556 65.9762
lradius 36.7384
lwrist -27.4689
lhand -24.5849 -26.1132
lfingers 7.12502
lthumb 1.9125 3.85795
rfemur -34.848 2.65173 32.3352
rtibia 64.0746
rfoot -33.1994 -14.4371
rtoes 16.228
lfemur -7.84521 6.17153 -8.15023
ltibia 24.8529
lfoot 6.02821 -5.08293
ltoes -5.45248
